<?xml version="1.0" encoding="UTF-8" standalone="no"?>
<!DOCTYPE svg PUBLIC "-//W3C//DTD SVG 1.1//EN" "http://www.w3.org/Graphics/SVG/1.1/DTD/svg11.dtd">
<svg width="100%" height="100%" viewBox="0 0 243 41" version="1.1" xmlns="http://www.w3.org/2000/svg" xmlns:xlink="http://www.w3.org/1999/xlink" xml:space="preserve" xmlns:serif="http://www.serif.com/" style="fill-rule:evenodd;clip-rule:evenodd;stroke-linecap:round;">
    <g id="svgGroup" transform="matrix(1,0,0,1,48,0)">
        <g transform="matrix(0.854077,0,0,0.770643,-6,4.99995)">
            <path d="M119.45,22.85L98.4,22.85L98.4,21.4L118.45,21.4L118,21.75C118.02,21.453 118.031,21.156 118.031,20.859C118.031,19.982 117.938,19.155 117.752,18.378C117.603,17.747 117.384,17.133 117.1,16.55C116.367,15.05 115.308,13.875 113.925,13.025C112.952,12.436 111.871,12.047 110.746,11.881C110.168,11.792 109.585,11.748 109,11.75C108.05,11.744 107.103,11.855 106.181,12.081C105.32,12.295 104.493,12.629 103.725,13.075C102.227,13.939 100.998,15.203 100.175,16.725C99.605,17.779 99.225,18.925 99.051,20.111C98.949,20.786 98.898,21.467 98.9,22.15C98.894,23.13 98.998,24.107 99.211,25.063C99.421,26.002 99.763,26.906 100.225,27.75C101.108,29.35 102.35,30.6 103.95,31.5C105.075,32.125 106.307,32.536 107.582,32.712C108.234,32.806 108.892,32.852 109.55,32.85C111.15,32.85 112.625,32.55 113.975,31.95C115.325,31.35 116.467,30.45 117.4,29.25L118.45,30.3C117.524,31.397 116.387,32.296 115.106,32.944C114.915,33.043 114.721,33.136 114.525,33.225C112.942,33.942 111.217,34.3 109.35,34.3C108.057,34.309 106.77,34.125 105.532,33.752C104.71,33.5 103.919,33.155 103.175,32.725C101.358,31.675 99.925,30.242 98.875,28.425C97.979,26.86 97.453,25.111 97.338,23.311C97.312,22.958 97.3,22.604 97.3,22.25C97.291,20.967 97.473,19.69 97.838,18.46C98.081,17.656 98.412,16.881 98.825,16.15C99.842,14.35 101.242,12.925 103.025,11.875C104.653,10.924 106.491,10.388 108.376,10.316C108.601,10.305 108.825,10.3 109.05,10.3C110.078,10.293 111.102,10.42 112.097,10.677C112.947,10.9 113.764,11.236 114.525,11.675C116.108,12.592 117.35,13.867 118.25,15.5C118.905,16.705 119.326,18.024 119.49,19.386C119.564,19.971 119.601,20.56 119.6,21.15C119.6,21.188 119.599,21.226 119.598,21.264C119.595,21.392 119.588,21.562 119.575,21.775C119.564,21.966 119.541,22.19 119.508,22.448C119.49,22.582 119.471,22.716 119.45,22.85ZM146.95,33.8L145.25,33.8L159,0L160.5,0L174.15,33.8L172.4,33.8L159.35,1.4L160.1,1.4L146.95,33.8ZM123.8,30.2L124.85,29.1C125.351,29.76 125.929,30.358 126.571,30.883C127.102,31.314 127.682,31.681 128.3,31.975C129.541,32.559 130.892,32.873 132.264,32.897C132.359,32.899 132.455,32.9 132.55,32.9C133.983,32.9 135.197,32.668 136.194,32.204C136.512,32.057 136.815,31.879 137.1,31.675C137.629,31.306 138.062,30.816 138.362,30.245C138.654,29.676 138.8,29.028 138.8,28.3C138.803,27.893 138.764,27.488 138.685,27.089C138.58,26.578 138.402,26.127 138.153,25.735C138.055,25.582 137.946,25.436 137.825,25.3C137.175,24.567 136.333,24 135.3,23.6C134.433,23.266 133.555,22.962 132.666,22.691C132.453,22.626 132.239,22.562 132.025,22.5C131.045,22.218 130.082,21.881 129.14,21.491C129.01,21.437 128.88,21.381 128.75,21.325C128.099,21.047 127.496,20.668 126.963,20.202C126.695,19.965 126.448,19.705 126.225,19.425C125.879,18.981 125.625,18.473 125.479,17.929C125.364,17.523 125.293,17.079 125.264,16.596C125.254,16.431 125.25,16.265 125.25,16.1C125.245,15.468 125.349,14.841 125.559,14.245C125.705,13.839 125.904,13.454 126.15,13.1C126.596,12.463 127.169,11.924 127.831,11.516C128.11,11.341 128.4,11.186 128.7,11.05C129.314,10.775 129.959,10.579 130.622,10.465C131.199,10.362 131.815,10.308 132.469,10.301C132.513,10.3 132.556,10.3 132.6,10.3C133.615,10.295 134.626,10.418 135.609,10.668C136.118,10.799 136.616,10.969 137.1,11.175C138.467,11.758 139.533,12.6 140.3,13.7L139.25,14.75C138.583,13.817 137.65,13.075 136.45,12.525C135.489,12.09 134.461,11.825 133.41,11.741C133.091,11.713 132.77,11.7 132.45,11.7C130.583,11.7 129.167,12.117 128.2,12.95C127.777,13.306 127.427,13.74 127.171,14.23C126.887,14.794 126.742,15.418 126.75,16.05C126.747,16.433 126.788,16.814 126.871,17.188C127,17.75 127.234,18.232 127.573,18.633C127.622,18.69 127.672,18.746 127.725,18.8C128.148,19.229 128.635,19.592 129.168,19.874C129.516,20.06 129.878,20.219 130.25,20.35C131.05,20.633 131.858,20.894 132.673,21.133C132.956,21.216 133.24,21.297 133.525,21.375C134.675,21.692 135.767,22.092 136.8,22.575C137.833,23.058 138.675,23.725 139.325,24.575C139.642,24.998 139.879,25.476 140.025,25.985C140.145,26.388 140.226,26.83 140.267,27.311C140.289,27.573 140.3,27.837 140.3,28.1C140.309,28.836 140.186,29.567 139.936,30.259C139.582,31.197 138.971,32.016 138.175,32.625C137.373,33.246 136.453,33.695 135.47,33.944C134.755,34.135 133.974,34.25 133.128,34.287C132.919,34.296 132.709,34.3 132.5,34.3C131.609,34.304 130.72,34.205 129.852,34.005C129.573,33.94 129.297,33.863 129.025,33.775C128.157,33.499 127.328,33.114 126.556,32.631C126.401,32.533 126.249,32.431 126.1,32.325C125.233,31.708 124.467,31 123.8,30.2ZM12.55,19.4L0.8,19.4L0.8,17.95L12.3,17.95C13.142,17.955 13.981,17.86 14.801,17.668C15.477,17.507 16.131,17.266 16.75,16.95C18.05,16.283 19.075,15.333 19.825,14.1C20.328,13.262 20.664,12.336 20.817,11.371C20.908,10.819 20.952,10.26 20.95,9.7C20.955,8.959 20.875,8.22 20.711,7.498C20.535,6.723 20.236,5.981 19.825,5.3C19.075,4.067 18.05,3.117 16.75,2.45C15.79,1.964 14.75,1.653 13.681,1.532C13.223,1.477 12.762,1.449 12.3,1.45L0.8,1.45L0.8,0L12.55,0C13.525,-0.006 14.496,0.108 15.443,0.338C16.228,0.531 16.986,0.821 17.7,1.2C19.2,2 20.392,3.125 21.275,4.575C21.894,5.603 22.3,6.744 22.471,7.932C22.559,8.517 22.602,9.108 22.6,9.7C22.606,10.574 22.508,11.445 22.309,12.296C22.099,13.188 21.75,14.041 21.275,14.825C20.392,16.275 19.2,17.4 17.7,18.2C16.588,18.785 15.378,19.16 14.13,19.305C13.606,19.369 13.078,19.401 12.55,19.4ZM75.8,33.8L74.25,33.8L74.25,20.05C74.25,17.55 73.533,15.533 72.1,14C70.943,12.764 69.383,11.98 67.701,11.788C67.253,11.728 66.802,11.699 66.35,11.7C64.717,11.7 63.275,12.058 62.025,12.775C60.775,13.492 59.792,14.467 59.075,15.7C58.551,16.614 58.214,17.624 58.085,18.67C58.027,19.111 57.999,19.555 58,20L56.95,19.4C56.942,18.374 57.108,17.354 57.442,16.383C57.642,15.812 57.905,15.264 58.225,14.75C59.075,13.383 60.225,12.3 61.675,11.5C62.871,10.848 64.19,10.454 65.548,10.346C65.898,10.315 66.249,10.3 66.6,10.3C67.483,10.294 68.364,10.403 69.219,10.623C69.995,10.825 70.738,11.137 71.425,11.55C72.808,12.383 73.883,13.533 74.65,15C75.188,16.042 75.539,17.169 75.688,18.332C75.764,18.901 75.801,19.475 75.8,20.05L75.8,33.8ZM34.135,33.644C35.426,34.089 36.784,34.311 38.15,34.3C38.219,34.3 38.287,34.3 38.356,34.299C40.387,34.291 42.379,33.739 44.125,32.7C45.908,31.633 47.325,30.192 48.375,28.375C48.805,27.631 49.15,26.84 49.402,26.018C49.775,24.78 49.959,23.493 49.95,22.2C49.95,22.027 49.947,21.854 49.94,21.681C49.888,19.736 49.35,17.834 48.375,16.15C47.325,14.35 45.908,12.925 44.125,11.875C42.342,10.825 40.35,10.3 38.15,10.3C37.925,10.3 37.701,10.305 37.476,10.316C35.591,10.388 33.753,10.924 32.125,11.875C30.342,12.925 28.925,14.35 27.875,16.15C27.524,16.751 27.23,17.383 26.995,18.038C26.524,19.375 26.289,20.783 26.3,22.2C26.3,22.411 26.305,22.621 26.314,22.832C26.381,24.77 26.916,26.664 27.875,28.35C28.925,30.183 30.342,31.633 32.125,32.7C32.762,33.082 33.435,33.398 34.135,33.644ZM181.5,26.2L181.5,18.35C181.721,17.385 182.073,16.456 182.547,15.587C182.859,15.021 183.229,14.49 183.65,14C184.683,12.8 185.933,11.883 187.4,11.25C188.867,10.617 190.433,10.3 192.1,10.3C193.311,10.291 194.516,10.469 195.673,10.827C196.48,11.081 197.253,11.433 197.975,11.875C199.692,12.925 201.05,14.358 202.05,16.175C202.858,17.659 203.348,19.295 203.488,20.979C203.53,21.435 203.55,21.892 203.55,22.35C203.558,23.6 203.392,24.844 203.057,26.048C202.82,26.883 202.491,27.688 202.075,28.45C201.092,30.25 199.733,31.675 198,32.725C196.267,33.775 194.3,34.3 192.1,34.3C190.984,34.307 189.872,34.155 188.798,33.849C188.294,33.703 187.802,33.519 187.325,33.3C185.875,32.633 184.642,31.692 183.625,30.475C182.608,29.258 181.9,27.833 181.5,26.2ZM210.95,26.2L210.95,18.35C211.171,17.385 211.523,16.456 211.997,15.587C212.309,15.021 212.679,14.49 213.1,14C214.133,12.8 215.383,11.883 216.85,11.25C218.317,10.617 219.883,10.3 221.55,10.3C222.761,10.291 223.966,10.469 225.123,10.827C225.93,11.081 226.703,11.433 227.425,11.875C229.142,12.925 230.5,14.358 231.5,16.175C232.308,17.659 232.798,19.295 232.938,20.979C232.98,21.435 233,21.892 233,22.35C233.008,23.6 232.842,24.844 232.507,26.048C232.27,26.883 231.941,27.688 231.525,28.45C230.542,30.25 229.183,31.675 227.45,32.725C225.717,33.775 223.75,34.3 221.55,34.3C220.434,34.307 219.322,34.155 218.248,33.849C217.744,33.703 217.252,33.519 216.775,33.3C215.325,32.633 214.092,31.692 213.075,30.475C212.058,29.258 211.35,27.833 210.95,26.2ZM1.6,33.8L0,33.8L0,0L1.6,0L1.6,33.8ZM182.2,43.6L180.65,43.6L180.65,10.8L182.2,10.8L182.2,16.4L181.7,21.95L182.2,27.65L182.2,43.6ZM211.65,43.6L210.1,43.6L210.1,10.8L211.65,10.8L211.65,16.4L211.15,21.95L211.65,27.65L211.65,43.6ZM88.2,33.8L86.65,33.8L86.65,1L88.2,1L88.2,33.8ZM38.15,32.85C40.083,32.85 41.817,32.383 43.35,31.45C44.883,30.517 46.1,29.242 47,27.625C47.754,26.256 48.201,24.739 48.31,23.18C48.337,22.837 48.35,22.494 48.35,22.15C48.358,21.007 48.189,19.869 47.849,18.778C47.636,18.107 47.351,17.461 47,16.85C46.1,15.283 44.883,14.042 43.35,13.125C41.987,12.317 40.448,11.852 38.866,11.772C38.628,11.757 38.389,11.75 38.15,11.75C36.953,11.741 35.762,11.936 34.631,12.328C34.038,12.537 33.466,12.804 32.925,13.125C31.375,14.042 30.15,15.283 29.25,16.85C28.35,18.417 27.9,20.2 27.9,22.2C27.893,23.29 28.036,24.376 28.327,25.426C28.545,26.201 28.855,26.948 29.25,27.65C30.15,29.25 31.375,30.517 32.925,31.45C34.475,32.383 36.217,32.85 38.15,32.85ZM191.8,32.85C193.8,32.85 195.558,32.4 197.075,31.5C198.592,30.6 199.783,29.35 200.65,27.75C201.334,26.472 201.755,25.07 201.886,23.626C201.929,23.185 201.951,22.743 201.95,22.3C201.956,21.318 201.847,20.338 201.625,19.381C201.416,18.489 201.088,17.629 200.65,16.825C199.783,15.242 198.6,14 197.1,13.1C195.855,12.361 194.458,11.915 193.015,11.798C192.661,11.766 192.306,11.75 191.95,11.75C190.99,11.743 190.033,11.868 189.106,12.12C188.312,12.34 187.553,12.67 186.85,13.1C185.383,14 184.233,15.242 183.4,16.825C182.843,17.898 182.472,19.057 182.301,20.254C182.198,20.948 182.148,21.649 182.15,22.35C182.144,23.373 182.259,24.394 182.493,25.39C182.69,26.218 182.986,27.018 183.375,27.775C184.192,29.358 185.325,30.6 186.775,31.5C187.956,32.226 189.289,32.669 190.67,32.795C191.046,32.832 191.423,32.851 191.8,32.85ZM221.25,32.85C223.25,32.85 225.008,32.4 226.525,31.5C228.042,30.6 229.233,29.35 230.1,27.75C230.784,26.472 231.205,25.07 231.336,23.626C231.379,23.185 231.401,22.743 231.4,22.3C231.406,21.318 231.297,20.338 231.075,19.381C230.866,18.489 230.538,17.629 230.1,16.825C229.233,15.242 228.05,14 226.55,13.1C225.305,12.361 223.908,11.915 222.465,11.798C222.111,11.766 221.756,11.75 221.4,11.75C220.44,11.743 219.483,11.868 218.556,12.12C217.762,12.34 217.003,12.67 216.3,13.1C214.833,14 213.683,15.242 212.85,16.825C212.293,17.898 211.922,19.057 211.751,20.254C211.648,20.948 211.598,21.649 211.6,22.35C211.594,23.373 211.709,24.394 211.943,25.39C212.14,26.218 212.436,27.018 212.825,27.775C213.642,29.358 214.775,30.6 216.225,31.5C217.406,32.226 218.739,32.669 220.12,32.795C220.496,32.832 220.873,32.851 221.25,32.85ZM58,33.8L56.45,33.8L56.45,10.8L58,10.8L58,33.8ZM168.45,22.65L151,22.65L151,21.2L168.45,21.2L168.45,22.65ZM94.25,12.15L80.55,12.15L80.55,10.8L94.25,10.8L94.25,12.15Z" style="stroke:black;stroke-width:2.83px;"/>
        </g>
        <g id="logo_pontes.svg" transform="matrix(1,0,0,1,-29.8608,17.3838)">
            <g transform="matrix(1,0,0,1,-17,-17)">
                <g transform="matrix(1,0,0,1,0,1)">
                    <path d="M0,8.421C0,3.77 3.77,0 8.421,0L23.579,0C28.23,0 32,3.77 32,8.421L32,23.579C32,28.23 28.23,32 23.579,32L8.421,32C3.77,32 0,28.23 0,23.579L0,8.421Z" style="fill:rgb(60,80,224);fill-rule:nonzero;"/>
                </g>
                <g transform="matrix(1,0,0,1,0,1)">
                    <path d="M8.421,8.421C8.421,7.491 9.175,6.737 10.106,6.737C11.036,6.737 11.79,7.491 11.79,8.421L11.79,23.579C11.79,24.509 11.036,25.263 10.106,25.263C9.175,25.263 8.421,24.509 8.421,23.579L8.421,8.421Z" style="fill:white;fill-rule:nonzero;"/>
                </g>
                <g transform="matrix(1,0,0,1,0,1)">
                    <g opacity="0.9">
                        <path d="M14.737,15.158C14.737,14.227 15.491,13.473 16.421,13.473C17.351,13.473 18.105,14.227 18.105,15.158L18.105,23.579C18.105,24.509 17.351,25.263 16.421,25.263C15.491,25.263 14.737,24.509 14.737,23.579L14.737,15.158Z" style="fill:white;fill-rule:nonzero;"/>
                    </g>
                </g>
                <g transform="matrix(1,0,0,1,0,1)">
                    <g opacity="0.7">
                        <path d="M21.052,10.947C21.052,10.017 21.806,9.263 22.737,9.263C23.667,9.263 24.421,10.017 24.421,10.947L24.421,23.578C24.421,24.509 23.667,25.263 22.737,25.263C21.806,25.263 21.052,24.509 21.052,23.578L21.052,10.947Z" style="fill:white;fill-rule:nonzero;"/>
                    </g>
                </g>
            </g>
        </g>
    </g>
</svg>
